<svg width="385" height="90" viewBox="0 0 385 90" fill="none" xmlns="http://www.w3.org/2000/svg">
<path d="M132.871 68.6167C130.43 70.7163 127.695 72.3276 124.668 73.4507C121.641 74.5737 118.503 75.1353 115.256 75.1353C112.766 75.1353 110.361 74.8057 108.042 74.1465C105.747 73.5117 103.586 72.6084 101.56 71.4365C99.5581 70.2402 97.7271 68.812 96.0669 67.1519C94.4067 65.4917 92.9785 63.6606 91.7822 61.6587C90.6104 59.6323 89.6948 57.4717 89.0356 55.1768C88.4009 52.8574 88.0835 50.4526 88.0835 47.9624C88.0835 45.4722 88.4009 43.0674 89.0356 40.748C89.6948 38.4287 90.6104 36.2681 91.7822 34.2661C92.9785 32.2397 94.4067 30.3965 96.0669 28.7363C97.7271 27.0762 99.5581 25.6602 101.56 24.4883C103.586 23.292 105.747 22.3765 108.042 21.7417C110.361 21.0825 112.766 20.7529 115.256 20.7529C118.503 20.7529 121.641 21.3145 124.668 22.4375C127.695 23.5361 130.43 25.1475 132.871 27.2715L127.305 36.4268C125.767 34.7666 123.948 33.4971 121.848 32.6182C119.749 31.7148 117.551 31.2632 115.256 31.2632C112.937 31.2632 110.764 31.7026 108.738 32.5815C106.711 33.4604 104.941 34.6567 103.428 36.1704C101.914 37.6597 100.718 39.4297 99.8389 41.4805C98.96 43.5068 98.5205 45.6675 98.5205 47.9624C98.5205 50.2573 98.96 52.418 99.8389 54.4443C100.718 56.4463 101.914 58.2041 103.428 59.7178C104.941 61.2314 106.711 62.4277 108.738 63.3066C110.764 64.1855 112.937 64.625 115.256 64.625C117.551 64.625 119.749 64.1855 121.848 63.3066C123.948 62.4033 125.767 61.1216 127.305 59.4614L132.871 68.6167ZM174.436 54.0415C174.436 56.9712 173.911 59.7056 172.861 62.2446C171.812 64.7593 170.383 66.9443 168.577 68.7998C166.77 70.6309 164.646 72.0835 162.205 73.1577C159.788 74.2075 157.188 74.7324 154.404 74.7324C151.646 74.7324 149.045 74.2075 146.604 73.1577C144.187 72.0835 142.063 70.6309 140.232 68.7998C138.425 66.9443 136.997 64.7593 135.947 62.2446C134.897 59.7056 134.373 56.9712 134.373 54.0415C134.373 51.063 134.897 48.3042 135.947 45.7651C136.997 43.2261 138.425 41.041 140.232 39.21C142.063 37.3545 144.187 35.9019 146.604 34.8521C149.045 33.8022 151.646 33.2773 154.404 33.2773C157.188 33.2773 159.788 33.7778 162.205 34.7788C164.646 35.7554 166.77 37.1592 168.577 38.9902C170.383 40.7969 171.812 42.9819 172.861 45.5454C173.911 48.0845 174.436 50.9165 174.436 54.0415ZM164.365 54.0415C164.365 52.4302 164.097 50.9775 163.56 49.6836C163.047 48.3652 162.339 47.2422 161.436 46.3145C160.532 45.3623 159.47 44.6421 158.25 44.1538C157.053 43.6411 155.771 43.3848 154.404 43.3848C153.037 43.3848 151.743 43.6411 150.522 44.1538C149.326 44.6421 148.276 45.3623 147.373 46.3145C146.494 47.2422 145.798 48.3652 145.286 49.6836C144.773 50.9775 144.517 52.4302 144.517 54.0415C144.517 55.5552 144.773 56.959 145.286 58.2529C145.798 59.5469 146.494 60.6699 147.373 61.6221C148.276 62.5742 149.326 63.3311 150.522 63.8926C151.743 64.4297 153.037 64.6982 154.404 64.6982C155.771 64.6982 157.053 64.4419 158.25 63.9292C159.47 63.4165 160.532 62.6963 161.436 61.7686C162.339 60.8408 163.047 59.7178 163.56 58.3994C164.097 57.0811 164.365 55.6284 164.365 54.0415ZM189.963 74H179.966V34.7788H182.383L185.679 38.5874C187.29 37.1226 189.109 35.9995 191.135 35.2183C193.186 34.4126 195.322 34.0098 197.544 34.0098C199.937 34.0098 202.195 34.4736 204.319 35.4014C206.443 36.3047 208.298 37.562 209.885 39.1733C211.472 40.7603 212.717 42.6279 213.621 44.7764C214.548 46.9004 215.012 49.1709 215.012 51.5879V74H205.015V51.5879C205.015 50.5625 204.819 49.5981 204.429 48.6948C204.038 47.7671 203.501 46.9614 202.817 46.2778C202.134 45.5942 201.34 45.0571 200.437 44.6665C199.534 44.2759 198.569 44.0806 197.544 44.0806C196.494 44.0806 195.505 44.2759 194.578 44.6665C193.65 45.0571 192.844 45.5942 192.161 46.2778C191.477 46.9614 190.94 47.7671 190.549 48.6948C190.159 49.5981 189.963 50.5625 189.963 51.5879V74ZM237.754 64.4053C238.145 64.5273 238.535 64.6128 238.926 64.6616C239.316 64.686 239.707 64.6982 240.098 64.6982C241.074 64.6982 242.014 64.564 242.917 64.2954C243.821 64.0269 244.663 63.6484 245.444 63.1602C246.25 62.6475 246.958 62.0371 247.568 61.3291C248.203 60.5967 248.716 59.791 249.106 58.9121L256.431 66.2729C255.503 67.5913 254.429 68.7754 253.208 69.8252C252.012 70.875 250.706 71.7661 249.29 72.4985C247.898 73.231 246.421 73.7803 244.858 74.1465C243.32 74.5371 241.733 74.7324 240.098 74.7324C237.339 74.7324 234.739 74.2197 232.297 73.1943C229.88 72.1689 227.756 70.7407 225.925 68.9097C224.119 67.0786 222.69 64.9058 221.641 62.3911C220.591 59.8521 220.066 57.0688 220.066 54.0415C220.066 50.9409 220.591 48.1089 221.641 45.5454C222.69 42.9819 224.119 40.7969 225.925 38.9902C227.756 37.1836 229.88 35.7798 232.297 34.7788C234.739 33.7778 237.339 33.2773 240.098 33.2773C241.733 33.2773 243.333 33.4727 244.895 33.8633C246.458 34.2539 247.935 34.8154 249.326 35.5479C250.742 36.2803 252.061 37.1836 253.281 38.2578C254.502 39.3076 255.576 40.4917 256.504 41.8101L237.754 64.4053ZM242.881 43.7876C242.417 43.6167 241.953 43.5068 241.489 43.458C241.05 43.4092 240.586 43.3848 240.098 43.3848C238.73 43.3848 237.437 43.6411 236.216 44.1538C235.02 44.6421 233.97 45.3501 233.066 46.2778C232.188 47.2056 231.492 48.3286 230.979 49.647C230.466 50.9409 230.21 52.4058 230.21 54.0415C230.21 54.4077 230.222 54.8228 230.247 55.2866C230.295 55.7505 230.356 56.2266 230.43 56.7148C230.527 57.1787 230.637 57.6304 230.759 58.0698C230.881 58.5093 231.04 58.8999 231.235 59.2417L242.881 43.7876ZM295.542 42.5791L288.218 49.9399C287.852 48.9146 287.351 47.999 286.716 47.1934C286.082 46.3633 285.361 45.6675 284.556 45.106C283.774 44.5444 282.92 44.1172 281.992 43.8242C281.064 43.5312 280.112 43.3848 279.136 43.3848C277.769 43.3848 276.475 43.6655 275.254 44.2271C274.058 44.7886 273.008 45.582 272.104 46.6074C271.226 47.6084 270.53 48.8047 270.017 50.1963C269.504 51.5879 269.248 53.126 269.248 54.8105C269.248 56.1777 269.504 57.4595 270.017 58.6558C270.53 59.8521 271.226 60.9019 272.104 61.8052C273.008 62.7085 274.058 63.4165 275.254 63.9292C276.475 64.4419 277.769 64.6982 279.136 64.6982C280.112 64.6982 281.052 64.564 281.956 64.2954C282.859 64.0269 283.701 63.6484 284.482 63.1602C285.288 62.6475 285.996 62.0371 286.606 61.3291C287.241 60.5967 287.754 59.791 288.145 58.9121L295.469 66.2729C294.541 67.5913 293.467 68.7754 292.246 69.8252C291.05 70.875 289.744 71.7661 288.328 72.4985C286.936 73.231 285.459 73.7803 283.896 74.1465C282.358 74.5371 280.771 74.7324 279.136 74.7324C276.377 74.7324 273.777 74.2197 271.335 73.1943C268.918 72.1445 266.794 70.7163 264.963 68.9097C263.157 67.103 261.729 64.9912 260.679 62.5742C259.629 60.1572 259.104 57.5693 259.104 54.8105C259.104 51.8076 259.629 49 260.679 46.3877C261.729 43.7754 263.157 41.5049 264.963 39.5762C266.794 37.623 268.918 36.085 271.335 34.9619C273.777 33.8389 276.377 33.2773 279.136 33.2773C280.771 33.2773 282.371 33.4849 283.933 33.8999C285.52 34.3149 287.021 34.9253 288.438 35.731C289.878 36.5122 291.196 37.4766 292.393 38.624C293.613 39.7715 294.663 41.0898 295.542 42.5791ZM320.115 74C317.698 74 315.427 73.5483 313.303 72.645C311.179 71.7173 309.312 70.46 307.7 68.873C306.113 67.2617 304.856 65.394 303.928 63.27C303.025 61.146 302.573 58.8755 302.573 56.4585V44.813H297.703V34.8521H302.573V19.1782H312.534V34.8521H327.695V44.813H312.534V56.4585C312.534 57.5083 312.729 58.4971 313.12 59.4248C313.511 60.3281 314.048 61.1216 314.731 61.8052C315.415 62.4888 316.221 63.0381 317.148 63.4531C318.076 63.8438 319.065 64.0391 320.115 64.0391H327.695V74H320.115ZM348.936 64.4053C349.326 64.5273 349.717 64.6128 350.107 64.6616C350.498 64.686 350.889 64.6982 351.279 64.6982C352.256 64.6982 353.196 64.564 354.099 64.2954C355.002 64.0269 355.845 63.6484 356.626 63.1602C357.432 62.6475 358.14 62.0371 358.75 61.3291C359.385 60.5967 359.897 59.791 360.288 58.9121L367.612 66.2729C366.685 67.5913 365.61 68.7754 364.39 69.8252C363.193 70.875 361.887 71.7661 360.471 72.4985C359.08 73.231 357.603 73.7803 356.04 74.1465C354.502 74.5371 352.915 74.7324 351.279 74.7324C348.521 74.7324 345.92 74.2197 343.479 73.1943C341.062 72.1689 338.938 70.7407 337.107 68.9097C335.3 67.0786 333.872 64.9058 332.822 62.3911C331.772 59.8521 331.248 57.0688 331.248 54.0415C331.248 50.9409 331.772 48.1089 332.822 45.5454C333.872 42.9819 335.3 40.7969 337.107 38.9902C338.938 37.1836 341.062 35.7798 343.479 34.7788C345.92 33.7778 348.521 33.2773 351.279 33.2773C352.915 33.2773 354.514 33.4727 356.077 33.8633C357.639 34.2539 359.116 34.8154 360.508 35.5479C361.924 36.2803 363.242 37.1836 364.463 38.2578C365.684 39.3076 366.758 40.4917 367.686 41.8101L348.936 64.4053ZM354.062 43.7876C353.599 43.6167 353.135 43.5068 352.671 43.458C352.231 43.4092 351.768 43.3848 351.279 43.3848C349.912 43.3848 348.618 43.6411 347.397 44.1538C346.201 44.6421 345.151 45.3501 344.248 46.2778C343.369 47.2056 342.673 48.3286 342.161 49.647C341.648 50.9409 341.392 52.4058 341.392 54.0415C341.392 54.4077 341.404 54.8228 341.428 55.2866C341.477 55.7505 341.538 56.2266 341.611 56.7148C341.709 57.1787 341.819 57.6304 341.941 58.0698C342.063 58.5093 342.222 58.8999 342.417 59.2417L354.062 43.7876Z" fill="#1F2A33"/>
<path d="M35 6C51.0163 6 64 18.9837 64 35C64 51.0163 51.0163 64 35 64C18.9837 64 6 51.0163 6 35C6 18.9837 18.9837 6 35 6ZM50.416 21.9365C46.5933 18.0218 40.3959 18.0218 36.5732 21.9365L35 23.5479L33.4268 21.9365C29.6041 18.0218 23.4067 18.0218 19.584 21.9365C14.8581 26.7766 14.8058 34.5906 19.4277 39.4961L19.4258 39.498L34.2529 54.6836C34.6393 55.0793 35.2515 55.1039 35.666 54.7578L35.7471 54.6836L50.5742 39.498L50.5723 39.4961C55.1942 34.5906 55.1419 26.7766 50.416 21.9365Z" fill="#1F2A33"/>
<path d="M52.7559 64C52.9089 64.2351 52.999 64.515 52.999 64.8164V86.1504C52.9989 86.8211 52.741 87.7852 51.9883 88.5859C51.2223 89.4006 49.9879 90 48.124 90C47.1573 89.9999 46.0815 89.45 45.0166 88.668C43.932 87.8714 42.7746 86.7699 41.6309 85.5361C39.3414 83.0664 37.0554 80.0123 35.4385 77.6533C35.2289 77.3481 34.77 77.348 34.5605 77.6533C32.9436 80.0123 30.6577 83.0664 28.3682 85.5361C27.2243 86.77 26.0671 87.8713 24.9824 88.668C23.9175 89.4501 22.8418 90 21.875 90C20.0112 90 18.7767 89.4006 18.0107 88.5859C17.2581 87.7853 17.0001 86.821 17 86.1504V64.8164C17.0001 64.5211 17.0859 64.2459 17.2334 64.0137L34.9678 68.4189L52.7559 64Z" fill="#1F2A33"/>
<path d="M66.5574 35C66.5574 17.5713 52.4287 3.44262 35 3.44262C17.5713 3.44262 3.44262 17.5713 3.44262 35C3.44262 52.4287 17.5713 66.5574 35 66.5574C52.4287 66.5574 66.5574 52.4287 66.5574 35ZM70 35C70 54.33 54.33 70 35 70C15.67 70 0 54.33 0 35C0 15.67 15.67 0 35 0C54.33 0 70 15.67 70 35Z" fill="#1F2A33"/>
</svg>
